<?xml version="1.0" standalone="no"?>
<!DOCTYPE svg PUBLIC "-//W3C//DTD SVG 20010904//EN"
 "http://www.w3.org/TR/2001/REC-SVG-20010904/DTD/svg10.dtd">
<svg version="1.0" xmlns="http://www.w3.org/2000/svg"
 width="512.000000pt" height="512.000000pt" viewBox="0 0 512.000000 512.000000"
 preserveAspectRatio="xMidYMid meet">

<g transform="translate(0.000000,512.000000) scale(0.100000,-0.100000)"
fill="#000000" stroke="none">
<path d="M0 2560 l0 -2560 1853 1 c1304 1 1842 4 1817 11 -51 16 -2429 2391
-2465 2462 -29 57 -31 101 -10 154 22 52 2413 2446 2470 2473 39 18 7 19
-1812 19 l-1853 0 0 -2560z"/>
<path d="M3802 5110 c98 -30 155 -137 128 -240 -10 -41 -104 -138 -1143 -1177
l-1132 -1133 1131 -1132 c1091 -1093 1132 -1135 1143 -1182 22 -92 -17 -178
-101 -220 l-52 -26 672 0 672 0 0 2560 0 2560 -672 -1 c-370 0 -661 -4 -646
-9z"/>
</g>
</svg>
